<svg version="1.1" id="Layer_1" xmlns="http://www.w3.org/2000/svg" xmlns:xlink="http://www.w3.org/1999/xlink" x="0px" y="0px"
	 width="100%" viewBox="0 0 512 512" enable-background="new 0 0 512 512" xml:space="preserve">

<path fill="#E53950" opacity="1.000000" stroke="none" 
	d="
	M415.157745,197.900406 
	C415.105865,174.964935 414.991882,152.029327 415.039093,129.094055 
	C415.053711,121.984505 421.272003,114.742210 429.506989,114.879013 
	C451.110168,115.237907 472.727661,115.247604 494.329895,114.861435 
	C501.572205,114.731964 507.667267,116.049210 512.743652,121.315781 
	C513.000000,126.022095 513.000000,131.044189 512.720215,136.227325 
	C508.742554,142.680984 504.967163,148.930847 501.440186,155.317886 
	C500.974396,156.161377 501.502075,157.843231 502.037262,158.900024 
	C504.464600,163.693253 506.963593,168.457291 509.659729,173.102417 
	C510.359650,174.308273 511.864746,175.046799 513.000000,176.000000 
	C513.000000,181.022095 513.000000,186.044189 513.000000,191.533142 
	C512.778442,191.826645 512.556946,191.653305 512.335388,191.479980 
	C506.693207,198.850250 498.659607,198.103119 490.708252,198.038589 
	C475.452606,197.914810 460.195160,198.017532 444.010437,198.013687 
	C433.774200,197.967529 424.465973,197.933975 415.157745,197.900406 
z"/>
<path fill="#6AABFF" opacity="1.000000" stroke="none" 
	d="
M1.000000,217.468658 
	C1.664281,216.558365 2.730795,216.253571 2.934402,215.655197 
	C9.067876,197.629211 26.508871,187.505051 43.550560,188.138504 
	C59.040001,188.714218 71.162804,195.900558 78.938934,209.669968 
	C79.965851,211.488358 80.828705,213.399368 81.819550,216.019913 
	C84.227768,225.879974 83.304184,235.005386 82.019745,244.132736 
	C77.882019,253.166748 72.367302,260.949707 63.481075,266.060089 
	C48.246983,274.821075 28.746639,273.387054 15.099724,261.681976 
	C8.875260,256.343201 5.105155,249.454544 1.277966,242.665344 
	C1.000000,234.645767 1.000000,226.291534 1.000000,217.468658 
z"/>
<path fill="#000000" opacity="1.000000" stroke="none" 
	d="
M513.000000,175.531342 
	C511.864746,175.046799 510.359650,174.308273 509.659729,173.102417 
	C506.963593,168.457291 504.464600,163.693253 502.037262,158.900024 
	C501.502075,157.843231 500.974396,156.161377 501.440186,155.317886 
	C504.967163,148.930847 508.742554,142.680984 512.720215,136.694183 
	C513.000000,149.687561 513.000000,162.375122 513.000000,175.531342 
z"/>
<path fill="#6AABFF" opacity="1.000000" stroke="none" 
	d="
M137.895386,94.982407 
	C138.665390,75.677162 147.387253,61.589294 165.788300,54.861221 
	C180.182220,49.598305 193.793762,52.127781 206.092667,61.545532 
	C216.545380,69.549576 220.514908,80.688408 221.710632,93.824234 
	C220.754074,103.431992 218.384369,111.744057 212.870453,118.990601 
	C212.004868,120.128189 211.549454,121.577873 210.904373,122.883240 
	C202.076111,131.156342 191.839783,136.207962 179.528305,135.958679 
	C168.460464,135.734543 158.717239,131.947723 150.302017,123.670715 
	C146.450897,116.323837 142.827255,109.534012 139.583237,102.567390 
	C138.515457,100.274292 138.430008,97.523766 137.895386,94.982407 
z"/>
<path fill="#5980FF" opacity="1.000000" stroke="none" 
	d="
M260.101776,390.120911 
	C278.731781,373.233490 304.386902,374.128754 321.660828,392.316864 
	C324.827698,399.160919 327.885681,405.458313 330.414581,411.961426 
	C331.501526,414.756531 331.490784,417.978485 331.978729,421.006531 
	C329.964172,446.292847 313.073883,461.583374 289.991943,461.625793 
	C265.936066,461.670044 249.205460,444.478180 248.334427,419.165527 
	C249.300385,410.259216 251.628952,402.645020 256.448029,395.873566 
	C257.763367,394.025360 258.889069,392.042175 260.101776,390.120911 
z"/>
<path fill="#5980FF" opacity="1.000000" stroke="none" 
	d="
M389.910156,261.932159 
	C394.506439,250.158279 402.350311,241.559296 415.063568,236.892365 
	C425.197937,233.610245 434.578125,234.238770 443.960571,236.772400 
	C459.373199,242.512131 468.728271,253.743835 470.774567,269.767761 
	C472.853241,286.045349 467.520905,299.965088 453.588135,309.969574 
	C433.249359,324.573822 401.715088,317.164246 391.889618,293.662781 
	C391.456482,292.626801 390.770447,291.696533 390.149231,289.979309 
	C387.428802,280.156189 388.108459,271.048004 389.910156,261.932159 
z"/>
<path fill="#333373" opacity="1.000000" stroke="none" 
	d="
M389.448334,261.954834 
	C388.108459,271.048004 387.428802,280.156189 390.004791,289.653351 
	C383.767181,289.852966 377.692047,289.642120 372.011932,292.889069 
	C364.923004,296.941406 361.058075,302.825134 361.022614,310.988403 
	C360.946686,328.468475 361.126190,345.950256 360.967773,363.429230 
	C360.766174,385.666779 352.449371,404.290924 335.538208,418.912292 
	C334.675781,419.657990 333.596802,420.153290 332.298706,420.885864 
	C331.490784,417.978485 331.501526,414.756531 330.414581,411.961426 
	C327.885681,405.458313 324.827698,399.160919 321.985413,392.420166 
	C329.154297,383.418518 332.292755,373.540161 332.079681,362.271423 
	C331.771423,345.969513 331.998993,329.657471 332.001068,313.349731 
	C332.004303,287.990814 347.395081,268.194183 372.108795,262.616394 
	C377.507751,261.397858 383.348969,262.138916 389.448334,261.954834 
z"/>
<path fill="#5C5C99" opacity="1.000000" stroke="none" 
	d="
M137.591339,95.112106 
	C138.430008,97.523766 138.515457,100.274292 139.583237,102.567390 
	C142.827255,109.534012 146.450897,116.323837 149.993820,123.518448 
	C143.426285,129.813110 140.541458,137.766235 140.168747,146.176010 
	C139.550110,160.134857 140.160599,174.143494 139.947006,188.126480 
	C139.788559,198.499817 138.926270,208.749649 133.490265,218.107010 
	C124.067909,234.326355 110.288261,243.225723 91.440506,243.984909 
	C88.614243,244.098724 85.780167,244.018341 82.484726,244.080261 
	C83.304184,235.005386 84.227768,225.879974 81.959801,216.346497 
	C91.107819,216.555283 99.825676,215.436630 105.588776,207.623749 
	C108.259575,204.003021 110.511353,199.212967 110.758850,194.829147 
	C111.451317,182.563828 111.404037,170.217865 110.915421,157.932892 
	C109.916351,132.814056 118.090454,111.762177 137.591339,95.112106 
z"/>
<path fill="#333373" opacity="1.000000" stroke="none" 
	d="
M211.219940,123.035950 
	C211.549454,121.577873 212.004868,120.128189 212.870453,118.990601 
	C218.384369,111.744057 220.754074,103.431992 221.727310,94.247391 
	C241.479996,108.531700 250.143051,128.214813 250.023987,152.206818 
	C249.916855,173.796600 250.015625,195.387436 249.634552,217.513123 
	C244.810593,217.476074 240.375610,216.903717 235.529221,216.265366 
	C230.724991,216.769211 226.332169,217.339050 221.939362,217.908875 
	C221.959076,195.582809 222.227600,173.252960 221.887436,150.932388 
	C221.730957,140.664642 218.672089,131.059814 211.219940,123.035950 
z"/>
<path fill="#333373" opacity="1.000000" stroke="none" 
	d="
M259.783661,389.971619 
	C258.889069,392.042175 257.763367,394.025360 256.448029,395.873566 
	C251.628952,402.645020 249.300385,410.259216 248.335999,418.730042 
	C230.968750,405.616913 222.379379,387.897491 222.072159,366.364624 
	C221.747147,343.583466 221.987823,320.794189 222.371918,297.440430 
	C227.153000,297.448273 231.543549,298.024139 236.347198,298.666016 
	C241.193451,298.182129 245.626587,297.632202 250.059738,297.082245 
	C250.040298,319.695679 249.708130,342.315247 250.154724,364.919495 
	C250.334412,374.014893 252.705948,382.892578 259.783661,389.971619 
z"/>
<path fill="#6AABFF" opacity="1.000000" stroke="none" 
	d="
M235.934113,298.599976 
	C231.543549,298.024139 227.153000,297.448273 222.352554,296.977295 
	C210.587906,292.727692 202.293152,285.037415 197.450119,273.904633 
	C191.041931,259.174042 193.717941,242.012817 204.652603,229.840149 
	C209.292297,224.675125 214.543915,220.392288 221.603622,218.058655 
	C226.332169,217.339050 230.724991,216.769211 235.538620,216.711060 
	C235.950989,244.348495 235.942551,271.474243 235.934113,298.599976 
z"/>
<path fill="#FEBB18" opacity="1.000000" stroke="none" 
	d="
M443.973328,236.318497 
	C434.578125,234.238770 425.197937,233.610245 415.432129,236.788864 
	C415.034271,224.130859 415.026581,211.489716 415.088318,198.374481 
	C424.465973,197.933975 433.774200,197.967529 443.545959,198.075287 
	C444.001678,210.721207 443.993866,223.292892 443.973328,236.318497 
z"/>
<path fill="#5980FF" opacity="1.000000" stroke="none" 
	d="
M236.347198,298.666016 
	C235.942551,271.474243 235.950989,244.348495 235.950043,216.777054 
	C240.375610,216.903717 244.810593,217.476074 249.657806,217.975098 
	C264.449310,223.867615 273.983032,234.110901 276.924103,249.593567 
	C280.833405,270.173157 269.469727,288.685730 252.840622,295.649933 
	C252.101166,295.959595 251.422165,296.413605 250.387375,296.941315 
	C245.626587,297.632202 241.193451,298.182129 236.347198,298.666016 
z"/>
</svg>